<?xml version="1.0" encoding="UTF-8"?>
<svg id="Layer_2" data-name="Layer 2" xmlns="http://www.w3.org/2000/svg" viewBox="0 0 390 390">
  <defs>
    <style>
      .cls-1 {
        fill: #a1d9d4;
        opacity: .4;
      }

      .cls-1, .cls-2 {
        stroke-width: 0px;
      }

      .cls-2 {
        fill: #54b949;
      }
    </style>
  </defs>
  <g id="Layer_1-2" data-name="Layer 1">
    <g>
      <path class="cls-2" d="M303.3,108.3c-20.24,0-45.87,12.84-78.38,39.26-12.04,9.79-22.59,19.5-29.92,26.55-7.33-7.05-17.88-16.76-29.92-26.55-32.51-26.42-58.15-39.26-78.38-39.26C38.89,108.3,0,147.19,0,195s38.89,86.7,86.7,86.7c20.24,0,45.87-12.84,78.38-39.26,12.04-9.79,22.59-19.5,29.92-26.55,7.33,7.05,17.88,16.76,29.92,26.55,32.51,26.42,58.15,39.26,78.38,39.26,47.81,0,86.7-38.89,86.7-86.7s-38.89-86.7-86.7-86.7ZM146.16,219.63c-12.02,9.75-41.88,32.44-59.46,32.44-31.47,0-57.07-25.6-57.07-57.07s25.6-57.07,57.07-57.07c21.24,0,61.06,31.66,87.32,57.01-6.92,6.64-16.79,15.71-27.86,24.69ZM303.3,252.07c-21.24,0-61.06-31.66-87.33-57.01,6.92-6.64,16.79-15.71,27.86-24.69,12.02-9.75,41.88-32.44,59.46-32.44,31.47,0,57.07,25.6,57.07,57.07s-25.6,57.07-57.07,57.07Z"/>
      <path class="cls-1" d="M210.28,57.11c-14.31,14.31-23.36,41.52-27.66,83.19-1.59,15.43-2.18,29.76-2.38,39.93-10.17.2-24.5.79-39.93,2.38-41.67,4.31-68.88,13.36-83.18,27.66-33.8,33.8-33.8,88.81,0,122.61,33.8,33.8,88.81,33.8,122.61,0,14.31-14.31,23.36-41.52,27.66-83.18,1.59-15.43,2.18-29.76,2.38-39.93,10.17-.2,24.5-.79,39.93-2.38,41.67-4.31,68.88-13.36,83.19-27.66,33.8-33.8,33.8-88.81,0-122.61-33.8-33.8-88.81-33.8-122.61,0ZM177.88,246.95c-1.6,15.4-6.68,52.55-19.11,64.98-22.25,22.25-58.45,22.25-80.7,0-22.25-22.25-22.25-58.45,0-80.7,15.02-15.02,65.57-20.79,102.06-21.44-.2,9.59-.77,22.98-2.24,37.16ZM311.93,158.77c-15.02,15.02-65.57,20.79-102.06,21.44.2-9.59.77-22.98,2.24-37.16,1.6-15.4,6.68-52.55,19.11-64.98,22.25-22.25,58.45-22.25,80.7,0,22.25,22.25,22.25,58.45,0,80.7Z"/>
      <path class="cls-1" d="M108.3,86.7c0,20.24,12.84,45.87,39.26,78.38,9.79,12.04,19.5,22.59,26.55,29.92-7.05,7.33-16.76,17.88-26.55,29.92-26.42,32.51-39.26,58.15-39.26,78.38,0,47.81,38.89,86.7,86.7,86.7,47.81,0,86.7-38.89,86.7-86.7,0-20.24-12.84-45.87-39.26-78.38-9.79-12.04-19.5-22.59-26.55-29.92,7.05-7.33,16.76-17.88,26.55-29.92,26.42-32.51,39.26-58.15,39.26-78.38C281.7,38.89,242.81,0,195,0c-47.81,0-86.7,38.89-86.7,86.7ZM219.63,243.84c9.75,12.02,32.44,41.88,32.44,59.46,0,31.47-25.6,57.07-57.07,57.07-31.47,0-57.07-25.6-57.07-57.07,0-21.24,31.66-61.06,57.01-87.32,6.64,6.92,15.71,16.79,24.69,27.86ZM252.07,86.7c0,21.24-31.66,61.06-57.01,87.33-6.64-6.92-15.71-16.79-24.69-27.86-9.75-12.02-32.44-41.88-32.44-59.46,0-31.47,25.6-57.07,57.07-57.07,31.47,0,57.07,25.6,57.07,57.07Z"/>
      <path class="cls-1" d="M57.11,179.72c14.31,14.31,41.52,23.36,83.19,27.66,15.43,1.59,29.76,2.18,39.93,2.38.2,10.17.79,24.5,2.38,39.93,4.31,41.67,13.36,68.88,27.66,83.18,33.8,33.8,88.81,33.8,122.61,0,33.8-33.8,33.8-88.81,0-122.61-14.31-14.31-41.52-23.36-83.18-27.66-15.43-1.59-29.76-2.18-39.93-2.38-.2-10.17-.79-24.5-2.38-39.93-4.31-41.67-13.36-68.88-27.66-83.19-33.8-33.8-88.81-33.8-122.61,0-33.8,33.8-33.8,88.81,0,122.61ZM246.95,212.12c15.4,1.6,52.55,6.68,64.98,19.11,22.25,22.25,22.25,58.45,0,80.7-22.25,22.25-58.45,22.25-80.7,0-15.02-15.02-20.79-65.57-21.44-102.06,9.59.2,22.98.77,37.16,2.24ZM158.77,78.07c15.02,15.02,20.79,65.57,21.44,102.06-9.59-.2-22.98-.77-37.16-2.24-15.4-1.6-52.55-6.68-64.98-19.11-22.25-22.25-22.25-58.45,0-80.7,22.25-22.25,58.45-22.25,80.7,0Z"/>
    </g>
  </g>
</svg>