<svg xmlns="http://www.w3.org/2000/svg" xmlns:xlink="http://www.w3.org/1999/xlink" width="219" height="96.129" viewBox="0 0 219 96.129">
  <defs>
    <clipPath id="clip-path">
      <rect id="Rectangle_23335" data-name="Rectangle 23335" width="219" height="96.129" fill="none"/>
    </clipPath>
    <clipPath id="clip-path-3">
      <rect id="Rectangle_23331" data-name="Rectangle 23331" width="80.471" height="80.471" fill="none"/>
    </clipPath>
    <clipPath id="clip-path-4">
      <rect id="Rectangle_23332" data-name="Rectangle 23332" width="42.739" height="96.129" fill="none"/>
    </clipPath>
  </defs>
  <g id="sarmad_logo_header" data-name="sarmad logo header" transform="translate(0 0.436)">
    <g id="Group_2159" data-name="Group 2159" transform="translate(0 -0.436)" clip-path="url(#clip-path)">
      <g id="Group_2158" data-name="Group 2158">
        <g id="Group_2157" data-name="Group 2157" clip-path="url(#clip-path)">
          <path id="Path_7792" data-name="Path 7792" d="M324.964,105.34a11.58,11.58,0,0,1-5.155-1.042,11.792,11.792,0,0,1-3.6-2.7l3.3-3.342a7.458,7.458,0,0,0,5.782,2.62,4.188,4.188,0,0,0,2.743-.753,2.484,2.484,0,0,0,.892-2,2.41,2.41,0,0,0-.529-1.588,3.4,3.4,0,0,0-2.148-.868l-2.28-.295a8.822,8.822,0,0,1-5.37-2.216,6.414,6.414,0,0,1-1.7-4.666,6.711,6.711,0,0,1,.595-2.845,6.3,6.3,0,0,1,1.7-2.216,7.925,7.925,0,0,1,2.71-1.44,13.2,13.2,0,0,1,8.245.315,9.329,9.329,0,0,1,3.4,2.416L330.218,88.1a6.7,6.7,0,0,0-2-1.554,6.428,6.428,0,0,0-2.958-.605,4.343,4.343,0,0,0-2.512.589,1.9,1.9,0,0,0-.826,1.635,2.066,2.066,0,0,0,.645,1.7,4.478,4.478,0,0,0,2.1.752l2.28.364a9.723,9.723,0,0,1,5.287,2.2,6.117,6.117,0,0,1,1.718,4.648,7.649,7.649,0,0,1-.6,3.043,6.518,6.518,0,0,1-1.735,2.382,7.984,7.984,0,0,1-2.825,1.538,12.44,12.44,0,0,1-3.833.546" transform="translate(-214.885 -55.372)" fill="#fff"/>
          <path id="Path_7793" data-name="Path 7793" d="M394.127,117.068a3.075,3.075,0,0,1-2.2-.826,3.794,3.794,0,0,1-1.107-2.214h-.2a4.013,4.013,0,0,1-1.751,2.562,6.031,6.031,0,0,1-3.338.875,5.425,5.425,0,0,1-4-1.383,4.934,4.934,0,0,1-1.388-3.657,4.554,4.554,0,0,1,2-4.068,9.68,9.68,0,0,1,5.436-1.334h2.743v-1.091a2.9,2.9,0,0,0-.661-2,2.84,2.84,0,0,0-2.214-.743,3.841,3.841,0,0,0-2.314.628,6.2,6.2,0,0,0-1.421,1.421l-2.908-2.592a7.6,7.6,0,0,1,2.66-2.442,9.059,9.059,0,0,1,4.346-.881,8.232,8.232,0,0,1,5.552,1.619,5.944,5.944,0,0,1,1.851,4.726v7.6h1.619v3.8Zm-6.775-3.007a4.01,4.01,0,0,0,2.1-.525,1.836,1.836,0,0,0,.875-1.706V109.8h-2.379q-2.875,0-2.875,1.935v.492a1.623,1.623,0,0,0,.595,1.394,2.781,2.781,0,0,0,1.685.443" transform="translate(-258.338 -67.496)" fill="#fff"/>
          <path id="Path_7794" data-name="Path 7794" d="M442.439,117.911V100.562h4.891v3.767h.165a5.388,5.388,0,0,1,.463-1.4,4.29,4.29,0,0,1,.876-1.206,4.1,4.1,0,0,1,1.305-.843,4.652,4.652,0,0,1,1.784-.314h.859v4.56H451.56a6.968,6.968,0,0,0-3.189.562,2.151,2.151,0,0,0-1.041,2.082v10.145Z" transform="translate(-300.669 -68.339)" fill="#fff"/>
          <path id="Path_7795" data-name="Path 7795" d="M484.1,117.069V99.72H489v2.941h.2a5.29,5.29,0,0,1,1.586-2.363,4.531,4.531,0,0,1,3.073-.975,5.113,5.113,0,0,1,3.041.893,4.981,4.981,0,0,1,1.817,2.611h.1a4.712,4.712,0,0,1,1.883-2.479,6.331,6.331,0,0,1,1.553-.744,5.937,5.937,0,0,1,1.851-.281,4.521,4.521,0,0,1,3.85,1.785,8.357,8.357,0,0,1,1.338,5.089v10.872h-4.89V106.593q0-3.3-2.38-3.3a3.37,3.37,0,0,0-1.983.628,2.186,2.186,0,0,0-.892,1.916v11.236h-4.89V106.593q0-3.3-2.38-3.3a3.708,3.708,0,0,0-1.041.149,2.655,2.655,0,0,0-.925.479,2.48,2.48,0,0,0-.661.81,2.375,2.375,0,0,0-.248,1.107v11.236Z" transform="translate(-328.983 -67.497)" fill="#fff"/>
          <path id="Path_7796" data-name="Path 7796" d="M586.672,117.068a3.074,3.074,0,0,1-2.2-.826,3.8,3.8,0,0,1-1.107-2.214h-.2a4.013,4.013,0,0,1-1.752,2.562,6.033,6.033,0,0,1-3.338.875,5.424,5.424,0,0,1-4-1.383,4.933,4.933,0,0,1-1.388-3.657,4.553,4.553,0,0,1,2-4.068,9.678,9.678,0,0,1,5.435-1.334h2.743v-1.091a2.9,2.9,0,0,0-.661-2,2.839,2.839,0,0,0-2.214-.743,3.842,3.842,0,0,0-2.314.628,6.2,6.2,0,0,0-1.421,1.421l-2.908-2.592a7.6,7.6,0,0,1,2.66-2.442,9.059,9.059,0,0,1,4.346-.881,8.232,8.232,0,0,1,5.552,1.619,5.943,5.943,0,0,1,1.851,4.726v7.6h1.619v3.8Zm-6.774-3.007a4.011,4.011,0,0,0,2.1-.525,1.836,1.836,0,0,0,.875-1.706V109.8h-2.379q-2.875,0-2.875,1.935v.492a1.623,1.623,0,0,0,.595,1.394,2.781,2.781,0,0,0,1.685.443" transform="translate(-389.186 -67.496)" fill="#fff"/>
          <path id="Path_7797" data-name="Path 7797" d="M643.806,99.933h-.166a4.334,4.334,0,0,1-.628,1.306,4.5,4.5,0,0,1-1.041,1.057,4.849,4.849,0,0,1-1.388.694,5.247,5.247,0,0,1-1.6.248,5.764,5.764,0,0,1-4.99-2.33q-1.685-2.33-1.685-6.758t1.685-6.742a5.781,5.781,0,0,1,4.99-2.314,5.045,5.045,0,0,1,2.99.926,4.065,4.065,0,0,1,1.669,2.379h.166V78.387h4.89v24.454h-4.89Zm-3.206-.661a3.738,3.738,0,0,0,2.3-.677,2.2,2.2,0,0,0,.909-1.867V91.606a2.2,2.2,0,0,0-.909-1.867,3.745,3.745,0,0,0-2.3-.677,3,3,0,0,0-2.3.975,3.7,3.7,0,0,0-.909,2.627V95.67A3.7,3.7,0,0,0,638.3,98.3a3,3,0,0,0,2.3.975" transform="translate(-429.697 -53.27)" fill="#fff"/>
          <path id="Path_7798" data-name="Path 7798" d="M335.875,183.441v2.891l-.5.5h-.4a6.391,6.391,0,0,1-4.187-1.595,7.258,7.258,0,0,1-4.951,1.595h-6.812v-3.888h6.081c2.094,0,3.456-.532,3.456-2.492,0-2.526-3.589-3.589-7.909-4.287v-4.12c5.417.366,11.9,3.19,11.9,8.772a8.18,8.18,0,0,1-.166,1.628,6.483,6.483,0,0,0,2.625.5h.366Z" transform="translate(-216.802 -116.916)" fill="#fff"/>
          <path id="Path_7799" data-name="Path 7799" d="M386.838,182.1c0,6.047-3.921,7.875-7.477,7.875a6.96,6.96,0,0,1-5.516-2.659,7.546,7.546,0,0,1-4.851,1.562l-.5-.5v-2.891l.5-.5c1.894,0,2.858-.465,3.854-3.057,1.362-3.523,3.057-6.878,7.377-6.878,4.286,0,6.612,3.356,6.612,7.044m-3.688.365c0-2.027-.831-3.29-2.891-3.29-1.927,0-2.792,1.329-3.489,3.323a18.923,18.923,0,0,1-.764,1.961,5.345,5.345,0,0,0,3.721,1.4c2.691,0,3.423-1.462,3.423-3.389" transform="translate(-250.419 -118.961)" fill="#fff"/>
          <path id="Path_7800" data-name="Path 7800" d="M443.933,186.049v2.891l-.5.5a10.065,10.065,0,0,1-4.12-.632v.6c0,5.184-2.293,8.108-7.543,8.108a15.118,15.118,0,0,1-2.193-.166v-3.489c.133,0,1,.067,2.027.067,2.592,0,3.522-1.661,3.522-3.755V175.881h4.187v8.706a7.218,7.218,0,0,0,4.12.964Z" transform="translate(-291.929 -119.524)" fill="#fff"/>
          <path id="Path_7801" data-name="Path 7801" d="M499.412,173.6v7.31a6.862,6.862,0,0,1-6.945,6.978,6.636,6.636,0,0,1-5.084-1.96,7.08,7.08,0,0,1-5.018,1.96,6.634,6.634,0,0,1-4.951-1.927,8.077,8.077,0,0,1-5.649,1.927l-.5-.5V184.5l.5-.5c2.758,0,3.522-1.529,3.522-2.991v-5.682h4.187v5.582a8.341,8.341,0,0,1-.2,1.828,4.925,4.925,0,0,0,3.09,1.262,2.827,2.827,0,0,0,2.891-2.991v-5.682h4.186v5.582a6.32,6.32,0,0,1-.233,1.794,5.144,5.144,0,0,0,3.124,1.3,2.827,2.827,0,0,0,2.891-2.991V173.6Z" transform="translate(-320.259 -117.973)" fill="#fff"/>
          <path id="Path_7802" data-name="Path 7802" d="M74.758,83.31c-4.988,0-11.307,3.165-19.32,9.677-2.968,2.412-5.567,4.805-7.375,6.543-1.808-1.738-4.407-4.132-7.375-6.543-8.012-6.511-14.332-9.677-19.32-9.677a21.37,21.37,0,1,0,0,42.739c4.988,0,11.308-3.166,19.32-9.677,2.968-2.412,5.567-4.805,7.375-6.543,1.808,1.738,4.407,4.132,7.375,6.543,8.013,6.511,14.332,9.677,19.32,9.677a21.37,21.37,0,0,0,0-42.739M36.025,110.751c-2.962,2.4-10.322,7.995-14.656,7.995a14.066,14.066,0,0,1,0-28.132c5.236,0,15.051,7.8,21.524,14.051-1.706,1.636-4.139,3.872-6.868,6.086m38.733,7.995c-5.236,0-15.052-7.8-21.525-14.051,1.706-1.636,4.139-3.872,6.868-6.086,2.963-2.4,10.322-7.995,14.657-7.995a14.066,14.066,0,1,1,0,28.132" transform="translate(0.001 -56.615)" fill="#57ac34"/>
          <g id="Group_2150" data-name="Group 2150" transform="translate(7.829 7.829)" opacity="0.4">
            <g id="Group_2149" data-name="Group 2149">
              <g id="Group_2148" data-name="Group 2148" clip-path="url(#clip-path-3)">
                <path id="Path_7803" data-name="Path 7803" d="M68.434,30.681c-3.527,3.527-5.757,10.234-6.819,20.5-.393,3.8-.539,7.335-.588,9.842-2.507.049-6.038.195-9.842.588-10.27,1.062-16.977,3.292-20.5,6.819A21.37,21.37,0,0,0,60.9,98.654c3.527-3.527,5.757-10.234,6.819-20.5.393-3.8.539-7.335.588-9.842,2.507-.049,6.038-.195,9.842-.588,10.27-1.062,16.977-3.292,20.5-6.819A21.369,21.369,0,1,0,68.434,30.681M60.449,77.473c-.4,3.795-1.645,12.952-4.71,16.017A14.066,14.066,0,0,1,35.846,73.6c3.7-3.7,16.161-5.124,25.156-5.284-.05,2.363-.189,5.665-.553,9.159M93.49,55.737c-3.7,3.7-16.162,5.124-25.156,5.284.049-2.363.189-5.665.553-9.159.4-3.795,1.645-12.952,4.711-16.017A14.066,14.066,0,0,1,93.49,55.737" transform="translate(-24.432 -24.432)" fill="#92d1ca"/>
              </g>
            </g>
          </g>
          <g id="Group_2153" data-name="Group 2153" transform="translate(26.695)" opacity="0.4">
            <g id="Group_2152" data-name="Group 2152">
              <g id="Group_2151" data-name="Group 2151" clip-path="url(#clip-path-4)">
                <path id="Path_7804" data-name="Path 7804" d="M83.31,21.37c0,4.988,3.165,11.307,9.677,19.32,2.412,2.968,4.805,5.567,6.543,7.375-1.738,1.808-4.132,4.407-6.543,7.375-6.511,8.012-9.677,14.332-9.677,19.32a21.37,21.37,0,1,0,42.739,0c0-4.988-3.166-11.308-9.677-19.32-2.412-2.968-4.805-5.567-6.543-7.375,1.738-1.808,4.132-4.407,6.543-7.375,6.511-8.013,9.677-14.332,9.677-19.32a21.37,21.37,0,0,0-42.739,0M110.751,60.1c2.4,2.962,7.995,10.322,7.995,14.656a14.066,14.066,0,1,1-28.132,0c0-5.236,7.8-15.051,14.051-21.524,1.636,1.706,3.872,4.139,6.086,6.868m7.995-38.733c0,5.236-7.8,15.052-14.051,21.525-1.636-1.706-3.872-4.139-6.086-6.868-2.4-2.963-7.995-10.322-7.995-14.657a14.066,14.066,0,1,1,28.132,0" transform="translate(-83.31 -0.001)" fill="#92d1ca"/>
              </g>
            </g>
          </g>
          <g id="Group_2156" data-name="Group 2156" transform="translate(7.829 7.829)" opacity="0.4">
            <g id="Group_2155" data-name="Group 2155">
              <g id="Group_2154" data-name="Group 2154" clip-path="url(#clip-path-3)">
                <path id="Path_7805" data-name="Path 7805" d="M30.681,60.9c3.527,3.527,10.234,5.757,20.5,6.819,3.8.393,7.335.539,9.842.588.049,2.507.195,6.038.588,9.842,1.062,10.27,3.292,16.977,6.819,20.5A21.37,21.37,0,0,0,98.654,68.433c-3.527-3.527-10.234-5.757-20.5-6.819-3.8-.393-7.335-.539-9.842-.588-.049-2.507-.195-6.038-.588-9.842-1.062-10.27-3.292-16.977-6.819-20.5A21.369,21.369,0,0,0,30.681,60.9m46.792,7.985c3.795.4,12.952,1.645,16.017,4.71A14.066,14.066,0,0,1,73.6,93.489c-3.7-3.7-5.124-16.161-5.284-25.156,2.363.05,5.665.189,9.159.553M55.737,35.845c3.7,3.7,5.124,16.162,5.284,25.156-2.363-.049-5.665-.189-9.159-.553-3.795-.4-12.952-1.645-16.017-4.711A14.066,14.066,0,0,1,55.737,35.845" transform="translate(-24.432 -24.432)" fill="#92d1ca"/>
              </g>
            </g>
          </g>
        </g>
      </g>
    </g>
  </g>
</svg>
